<?xml version="1.0" encoding="UTF-8"?>
<svg width="271px" height="114px" viewBox="0 0 271 114" version="1.1" xmlns="http://www.w3.org/2000/svg" xmlns:xlink="http://www.w3.org/1999/xlink">
    <!-- Generator: Sketch 49.3 (51167) - http://www.bohemiancoding.com/sketch -->
    <title>Logo</title>
    <desc>Created with Sketch.</desc>
    <defs></defs>
    <g id="Page-1" stroke="none" stroke-width="1" fill="none" fill-rule="evenodd">
        <g id="LANDING-1440-+" transform="translate(-49.000000, -71.000000)">
            <g id="Header" transform="translate(49.000000, 53.000000)">
                <g id="Logo" transform="translate(0.000000, 11.000000)">
                    <path d="M144.70184,85.3749708 L151.980675,85.3749708 C156.880643,108.249579 182.669569,121 206.500035,121 C230.369374,121 256.125044,108.223974 261.019394,85.3749708 L268.298229,85.3749708 C270.700465,85.3749708 271.903493,82.4969138 270.204783,80.8138538 L255.143567,65.8894158 C254.090637,64.8460478 252.383389,64.8460478 251.330234,65.8894158 L236.269018,80.8138538 C234.570309,82.4971364 235.773337,85.3749708 238.175572,85.3749708 L246.072774,85.3749708 C241.513671,97.4690003 226.981841,104.654346 213.690114,106.308015 L213.690114,63.9999533 L225.374359,63.9999533 C226.863426,63.9999533 228.070723,62.8036203 228.070723,61.3280761 L228.070723,52.4218188 C228.070723,50.9462746 226.863426,49.7499416 225.374359,49.7499416 L213.690114,49.7499416 L213.690114,48.532011 C222.067044,45.5978445 228.0696,37.6830763 228.070723,28.377596 C228.072071,16.746024 218.544918,7.16422707 206.80787,7.00213319 C194.753549,6.83536352 184.929122,16.4683714 184.929122,28.3749241 C184.929122,37.6815177 190.932127,45.5973992 199.30973,48.532011 L199.30973,49.7499416 L187.625486,49.7499416 C186.136419,49.7499416 184.929122,50.9462746 184.929122,52.4218188 L184.929122,61.3280761 C184.929122,62.8036203 186.136419,63.9999533 187.625486,63.9999533 L199.30973,63.9999533 L199.30973,106.308015 C186.066987,104.66058 171.487746,97.4732307 166.927071,85.3749708 L174.824272,85.3749708 C177.226508,85.3749708 178.429536,82.4969138 176.730827,80.8138538 L161.669611,65.8894158 C160.61668,64.8460478 158.909432,64.8460478 157.856278,65.8894158 L142.795062,80.8138538 C141.096577,82.4969138 142.299605,85.3749708 144.70184,85.3749708 Z M206.5,23 C210.635547,23 214,26.3644531 214,30.5 C214,34.6355469 210.635547,38 206.5,38 C202.364453,38 199,34.6355469 199,30.5 C199,26.3644531 202.364453,23 206.5,23 Z" id="Shape" fill="#00E676" fill-rule="nonzero"></path>
                    <text id="ANKER_" font-family="PTMono-Regular, PT Mono" font-size="48" font-weight="normal" fill="#FFFFFF">
                        <tspan x="0" y="42">ANKER_</tspan>
                    </text>
                </g>
            </g>
        </g>
    </g>
</svg>