<?xml version="1.0" ?><svg id="Layer_1" style="enable-background:new 0 0 74 74;" version="1.1" viewBox="0 0 74 74" xml:space="preserve" xmlns="http://www.w3.org/2000/svg" xmlns:xlink="http://www.w3.org/1999/xlink"><style type="text/css">
	.st0{fill:#2B3033;}
</style><g><g><path class="st0" d="M20.3,33.2h24.6c1.1,0,2-0.9,2-2s-0.9-2-2-2H20.3c-1.1,0-2,0.9-2,2S19.2,33.2,20.3,33.2z"/></g><g><path class="st0" d="M20.3,43.6h24.6c1.1,0,2-0.9,2-2s-0.9-2-2-2H20.3c-1.1,0-2,0.9-2,2S19.2,43.6,20.3,43.6z"/></g><g><path class="st0" d="M20.3,54h24.6c1.1,0,2-0.9,2-2s-0.9-2-2-2H20.3c-1.1,0-2,0.9-2,2S19.2,54,20.3,54z"/></g><g><path class="st0" d="M35.3,22.9h9.6c1.1,0,2-0.9,2-2s-0.9-2-2-2h-9.6c-1.1,0-2,0.9-2,2S34.2,22.9,35.3,22.9z"/></g><g><path class="st0" d="M57.8,9.7h-0.4V9.3c0-4.6-3.7-8.3-8.3-8.3L27.7,1c-0.1,0-0.2,0-0.4,0c0,0,0,0,0,0c-0.2,0-0.3,0.1-0.5,0.2    c0,0-0.1,0-0.1,0.1c-0.2,0.1-0.3,0.2-0.4,0.3L8.4,19.4c-0.1,0.1-0.2,0.3-0.3,0.4c0,0,0,0.1-0.1,0.1c-0.1,0.2-0.1,0.3-0.2,0.5    c0,0,0,0,0,0c0,0.1,0,0.3,0,0.4V56c0,4.6,3.7,8.3,8.3,8.3h0.4v0.4c0,4.6,3.7,8.3,8.3,8.3h33c4.6,0,8.3-3.7,8.3-8.3V18    C66.1,13.4,62.4,9.7,57.8,9.7z M25.7,7.8v6.7c0,2.4-1.9,4.3-4.3,4.3h-6.7L25.7,7.8z M11.9,56V22.9h9.6c4.6,0,8.3-3.7,8.3-8.3V5    l19.4,0c2.4,0,4.3,1.9,4.3,4.3V56c0,2.4-1.9,4.3-4.3,4.3h-33C13.8,60.3,11.9,58.4,11.9,56z M62.1,64.7c0,2.4-1.9,4.3-4.3,4.3h-33    c-2.4,0-4.3-1.9-4.3-4.3v-0.4h28.5c4.6,0,8.3-3.7,8.3-8.3V13.7h0.4c2.4,0,4.3,1.9,4.3,4.3V64.7z"/></g></g></svg>