<?xml version="1.0" encoding="UTF-8"?>
<svg width="155px" height="157px" viewBox="0 0 155 157" version="1.1" xmlns="http://www.w3.org/2000/svg" xmlns:xlink="http://www.w3.org/1999/xlink">
    <!-- Generator: Sketch 49.3 (51167) - http://www.bohemiancoding.com/sketch -->
    <title>Fingerprint icon</title>
    <desc>Created with Sketch.</desc>
    <defs></defs>
    <g id="Page-1" stroke="none" stroke-width="1" fill="none" fill-rule="evenodd" opacity="0.75">
        <g id="LANDING-1440-+" transform="translate(-177.000000, -930.000000)" fill="#00E676" fill-rule="nonzero">
            <g id="How" transform="translate(119.000000, 809.000000)">
                <g id="Group-14" transform="translate(0.000000, 100.000000)">
                    <g id="Fingerprint-icon" transform="translate(58.000000, 21.000000)">
                        <path d="M4.01860659,44.2568354 C5.18676289,44.4884879 6.26656653,44.471291 9.59209333,42.1613413 C11.0655696,41.1366078 13.2464262,39.4083184 15.263439,36.9997394 L16.1447288,35.9396005 C23.6893744,26.8636785 41.3515174,5.61487318 66.8653035,6.76706614 C87.9038599,8.15546371 102.820919,22.5260108 109.993142,48.3294683 C110.236391,49.2054991 110.385137,49.7456844 110.550099,50.1573986 C110.562961,50.2115183 110.584769,50.2696843 110.595953,50.3268388 C112.628064,53.5568231 114.229596,57.032622 115.339596,60.6960696 C115.595707,60.9459306 115.858528,61.1831468 116.133651,61.3642201 C116.790145,61.7936371 117.551767,62 118.30612,62 C119.454145,62 120.594901,61.5164634 121.317939,60.6050271 C122.477707,59.1554288 122.167914,57.1474367 120.648584,56.0326723 C119.91548,55.1743442 118.535949,51.5837306 117.71673,48.3719547 C117.666961,48.1822829 117.602095,47.9981749 117.514301,47.8171015 C117.449435,47.5955648 117.313551,47.1170861 117.195002,46.6886807 C116.05816,42.5998625 113.036276,31.7364734 105.710834,21.5179685 C96.2498305,8.32591544 83.3481062,1.10624806 67.3579534,0.0643176361 C67.3322305,0.0607770959 67.3093035,0.0607770959 67.2813438,0.0572365556 C37.8101417,-1.30384828 18.4648248,21.9660997 10.2072068,31.902373 L9.33933764,32.9443035 C7.07739785,35.647253 4.40500966,37.3310328 3.48345792,37.8186158 C3.17422363,37.9303957 2.87169967,38.0811216 2.59378025,38.2728165 C1.43792622,39.0643802 0.873140264,40.4153492 1.18349294,41.696519 C1.49775998,42.9766772 2.60608251,43.9761211 4.01860659,44.2568354 Z" id="Shape"></path>
                        <path d="M90.141844,33 C88.0520464,31.4849487 85.4943215,30.3051053 82.5071862,29.5288345 C81.4172644,29.2474363 80.2950717,29.0763039 79.1489362,29 C83.0453807,29.9363767 86.7341467,31.2886757 90.141844,33 Z" id="Shape"></path>
                        <path d="M4.39553343,77.8827518 C8.19573265,76.9082064 11.89219,75.6017436 15.1637251,74.2775258 C15.1202374,73.4874339 15.0950879,72.6943828 15.0950879,71.8944271 C15.0950879,70.2402646 15.2009255,68.606323 15.3900709,67 C11.7386731,68.614214 7.19394292,70.3753989 2.56538096,71.563496 C0.711126848,72.0359729 -0.381829939,73.8385859 0.123256515,75.5839887 C0.625723226,77.3298847 2.53865958,78.3616402 4.39553343,77.8827518 Z" id="Shape"></path>
                        <path d="M26.8642845,99 C20.9889672,101.904571 15.1114229,104.605224 9.94150001,106.597187 C8.06193295,107.322451 7.1906289,109.280763 7.9940102,110.975389 C8.59250979,112.245103 9.9604293,113 11.3940446,113 C11.8800819,113 12.3733569,112.914114 12.8477026,112.735309 C18.6695725,110.488699 25.3265581,107.394776 31.8794326,104.121045 C30.0700153,102.52888 28.3903192,100.8222 26.8642845,99 Z" id="Shape"></path>
                        <path d="M36.624196,31.7753835 C34.9589728,33.4668489 33.464471,35.2813855 31.8539449,37.0109929 C29.7450675,39.2791636 27.4411589,41.3998525 25.036696,43.3979787 C22.5598561,45.4550977 20.5587154,46.9263573 17.6404312,48.4703408 C14.5453482,50.1028135 11.3889382,51.7602056 8.18280351,53.1958661 C7.07836387,53.6901849 6.12862314,54.0136281 4.88937446,54.3548709 C2.97718558,54.8842802 1.78766155,56.7033939 2.33021269,58.5097935 C2.84900649,60.2546576 4.92804919,61.3989142 6.84300055,60.8700134 C10.5955538,59.8295028 13.9967196,58.0541252 17.382968,56.2823075 C18.5288448,55.6801742 19.6675392,55.1034689 20.7935262,54.507947 C26.2113026,43.0180855 36.6352459,33.9774416 49.5183491,29.7284356 C49.7387951,29.5580685 49.9620035,29.3917699 50.1841069,29.2198772 C50.2597989,29.1654614 50.8305273,28.7499691 50.9747288,28.6431719 C53.5300231,26.8423663 56.2543812,25.2388815 59.1201783,23.8850988 C61.825199,22.6030229 64.5407172,21.7084686 67.8341462,21.0763304 C68.9264309,20.86833 69.1645567,20.846462 69.9811459,20.7696697 C71.9695793,20.5789602 73.6524823,19.3736767 73.6524823,17.3908072 C73.6524823,15.6922219 71.9751042,13.822761 69.9811459,14.0134704 C56.7135054,15.2782553 45.3679987,22.9152778 36.624196,31.7753835 Z" id="Shape"></path>
                        <path d="M8.16281261,95.7659367 C10.2983203,95.0920883 14.8931714,93.558216 20.8865248,91.0836924 C19.901724,89.1305584 19.0695353,87.0972858 18.4059114,85 C12.4981697,87.451557 7.95330314,88.9683266 5.86884343,89.6289814 C5.7109137,89.6778464 5.61360347,89.70912 5.58116672,89.7193816 C3.75673273,90.3585358 2.83680536,92.2315313 3.52754851,93.9051575 C4.06248893,95.2039892 5.40622099,96 6.83237429,96 C7.23278199,96 7.64010243,95.9398961 8.03625613,95.8094265 L8.16281261,95.7659367 Z" id="Shape"></path>
                        <path d="M87.9432624,112.215663 C91.6027683,114.654263 95.3109791,117.072602 98.9361702,119 L90.4283171,111 C89.6125107,111.42808 88.7789935,111.831742 87.9432624,112.215663 Z" id="Shape"></path>
                        <path d="M48.3687943,113.339393 C45.6490381,112.424593 43.041183,111.303033 40.5709663,110 C31.8063127,115.113958 22.3993469,120.50657 18.1448671,121.521031 C16.1603011,121.996033 14.9853396,123.80481 15.5185483,125.560036 C15.9655932,127.032642 17.4656275,128 19.1049786,128 C19.4250157,128 19.7523264,127.962813 20.0740421,127.884472 C25.8067353,126.513511 35.910845,120.612181 46.6069115,114.367738 C47.1865592,114.031072 47.77404,113.684985 48.3687943,113.339393 Z" id="Shape"></path>
                        <path d="M97.6212831,131.241358 C94.681614,130.288234 89.8953777,127.643289 85.2685178,125.085887 C75.4970996,119.681898 69.285819,116.404981 64.8298764,117.090069 C60.3151294,117.789912 50.8344356,123.555872 34.9226318,133.954172 C32.9743935,135.22648 31.2926983,136.323704 30.1254041,137.063875 C28.4810799,138.106017 28.0875852,140.14407 29.2488342,141.617035 C29.9616311,142.517044 31.0904553,143 32.2335683,143 C32.963402,143 33.6976323,142.805244 34.3389847,142.400978 C35.5524431,141.633265 37.2561212,140.517352 39.2290904,139.233733 C45.5607276,135.0932 62.3853731,124.102762 66.03674,123.537183 C68.3125242,123.399477 76.5264509,127.933456 81.4335933,130.643319 C86.6056303,133.501217 91.4896907,136.204194 95.1421567,137.385518 C97.0354377,137.999786 99.1309617,137.11945 99.8173791,135.423203 C100.502697,133.725481 99.5189607,131.855627 97.6212831,131.241358 Z" id="Shape"></path>
                        <path d="M87.340502,149.157563 C85.2299325,147.936681 83.2929352,146.706269 81.4141722,145.519997 C75.256036,141.61508 69.9301414,138.24386 64.0948381,139.148236 C57.5251041,140.154436 47.0604563,149.488616 45.0296056,151.348028 C43.5856211,152.669731 43.6251978,154.780944 45.1149783,156.063021 C45.8437551,156.683995 46.7868116,157 47.7259104,157 C48.7068475,157 49.6866538,156.659919 50.4222152,155.98427 C55.4524152,151.376619 62.5988384,146.135955 65.3726005,145.711104 C68.1152665,145.293777 72.2595136,147.911601 77.0522533,150.944746 C78.9010511,152.115468 80.9935283,153.440682 83.2352663,154.737807 C84.9726839,155.742 87.302056,155.310127 88.43395,153.768224 C89.5635824,152.227324 89.0762234,150.165267 87.340502,149.157563 Z" id="Shape"></path>
                        <path d="M119.368432,84.3269575 C120.241578,82.8353952 119.872858,80.2627679 118.116045,79.5143383 C116.992526,79.0360426 115.854806,78.5328522 114.734969,78 C114.411484,80.3702917 113.901798,82.7029766 113.22695,84.9869315 C113.676673,85.1935044 114.130604,85.3926619 114.591373,85.5886413 C116.344504,86.3391895 118.313818,86.1432101 119.368432,84.3269575 Z" id="Shape"></path>
                        <path d="M110.81085,97.0962748 C109.705618,96.780358 108.716231,96.4175133 107.730496,96 L113.112636,101 C113.512879,99.4726657 112.889294,97.6927915 110.81085,97.0962748 Z" id="Shape"></path>
                        <path d="M152.512863,140.738031 L102.756821,95.2075367 C102.680908,95.1346482 102.587817,95.0916237 102.508579,95.023797 C107.911182,88.1677249 111.131134,79.7911183 111.131134,70.7205526 C111.131134,47.7136095 90.6416901,29 65.4577989,29 C40.2722453,29 19.787234,47.7136095 19.787234,70.7205526 C19.787234,93.7249649 40.2744617,112.439081 65.4594612,112.439081 C74.6128573,112.439081 83.1290232,109.9467 90.283733,105.694366 C90.4350059,105.856846 90.5624519,106.037549 90.72924,106.192943 L140.481957,151.725462 C143.802203,154.759951 149.187629,154.756408 152.511755,151.725462 C155.82923,148.690467 155.82923,143.769989 152.512863,140.738031 Z M102.075816,69.8094467 C101.745565,70.2806909 101.279001,70.5545289 100.658949,70.5545289 C99.4459949,70.5545289 98.6569377,69.4019799 98.6569377,67.3707198 C98.6569377,65.2437937 99.5080556,64.1175655 100.674464,64.1175655 C100.963157,64.1175655 101.209737,64.1823553 101.435261,64.2871324 C101.814275,66.0825173 102.020959,67.9290253 102.075816,69.8094467 Z M85.4097532,45.2632407 C85.4097532,47.2555257 84.7592243,48.5174074 83.3955517,48.5174074 C82.1825979,48.5174074 81.3935407,47.3673893 81.3935407,45.3361292 C81.3935407,43.2097092 82.2446585,42.0794317 83.4110668,42.0794317 C84.7897005,42.0794317 85.4097532,43.3408072 85.4097532,45.2632407 Z M35.5711488,53.5062185 C36.9514448,53.5062185 37.5726057,54.7681002 37.5726057,56.6910399 C37.5726057,58.6863619 36.918198,59.9477374 35.5550795,59.9477374 C34.3432339,59.9477374 33.5558391,58.7951884 33.5558391,56.7639284 C33.5558391,54.6344713 34.4058487,53.5062185 35.5711488,53.5062185 Z M29.2404054,75.7048082 C29.5883885,75.272539 30.0350037,75.0397009 30.5519914,75.0397009 C31.9345038,75.0397009 32.5534483,76.3005702 32.5534483,78.2199667 C32.5534483,80.102919 31.9655342,81.3172207 30.7536886,81.4488249 C30.0682505,79.6038354 29.5667781,77.6814019 29.2404054,75.7048082 Z M37.9006407,92.7445137 C36.9331591,91.7362231 36.0116688,90.6899698 35.1821613,89.5814576 C35.2209493,87.5512099 36.0487944,86.4669938 37.1902676,86.4669938 C38.5689013,86.4669938 39.1900622,87.7278632 39.1900622,89.6508029 C39.1906163,91.2442259 38.7672738,92.3562813 37.9006407,92.7445137 Z M49.7808279,100.951553 C48.4526186,100.376544 47.1665218,99.7357331 45.9341741,99.0220335 C46.2156636,97.7469913 46.9182791,97.0753038 47.8153884,97.0753038 C49.1967926,97.0753038 49.8179535,98.3361732 49.8179535,100.258607 C49.8179535,100.504605 49.8024384,100.729851 49.7808279,100.951553 Z M53.5809363,100.331495 C53.5809363,98.2040628 54.4315001,97.0747976 55.5984625,97.0747976 C56.9770962,97.0747976 57.597703,98.335667 57.597703,100.258101 C57.597703,101.661204 57.2657892,102.688729 56.5986369,103.183763 C55.7397614,102.987875 54.8853188,102.783889 54.0508243,102.532828 C53.7532655,101.997807 53.5809363,101.259811 53.5809363,100.331495 Z M76.9268341,100.331495 C76.9268341,98.2040628 77.7773978,97.0747976 78.9426979,97.0747976 C80.3257645,97.0747976 80.9436007,98.335667 80.9436007,100.258101 C80.9436007,100.552691 80.905921,100.805776 80.8776613,101.065442 C79.7245517,101.55592 78.5459529,101.992239 77.3341073,102.373385 C77.0825399,101.855573 76.9268341,101.183885 76.9268341,100.331495 Z M82.2601737,100.457531 C82.2623902,100.370976 82.2790136,100.298594 82.2790136,100.208496 C82.2790136,97.7211767 81.0976442,96.25379 79.0202738,96.25379 C77.0199251,96.25379 75.5914212,97.6973867 75.5914212,100.313779 C75.6030576,101.310428 75.8224864,102.110176 76.1732401,102.742889 C74.8572212,103.112899 73.5062932,103.397367 72.1315384,103.629699 L72.1315384,96.3853942 L70.9944981,96.3853942 L68.8434306,97.3015618 L69.1022014,98.1038412 L70.8144113,97.3749564 L70.8454416,97.3749564 L70.8454416,103.81192 C69.0839157,104.047289 67.2935759,104.213819 65.4611235,104.213819 C65.0876512,104.213819 64.7224906,104.173831 64.3517889,104.161683 L64.3517889,96.3874188 L63.2158568,96.3874188 L61.0625729,97.3040926 L61.322452,98.1058658 L63.03577,97.3769811 L63.0662463,97.3769811 L63.0662463,104.104992 C61.2858805,103.995659 59.5304499,103.803315 57.82766,103.474304 C58.5446825,102.778321 58.9397652,101.687018 58.9397652,100.211027 C58.9397652,97.7237075 57.7556253,96.256827 55.6799172,96.256827 C53.677352,96.256827 52.2521729,97.6999175 52.2521729,100.316816 C52.2599304,100.95459 52.3452639,101.520995 52.4987532,102.010967 C52.0055925,101.8414 51.5052283,101.688537 51.0237039,101.498217 C51.1034962,101.103404 51.1555828,100.684296 51.1555828,100.209508 C51.1555828,97.722189 49.9714429,96.2548023 47.8951807,96.2548023 C46.4683392,96.2548023 45.3440435,97.0049462 44.8120948,98.3721112 C42.5324731,96.9482552 40.4606438,95.2784005 38.5899576,93.4313863 C39.8389287,92.8842166 40.5282456,91.5712117 40.5282456,89.6001859 C40.5282456,87.1143852 39.345768,85.6469985 37.2683976,85.6469985 C35.7656425,85.6469985 34.5864896,86.4609198 34.0933289,87.9753803 C32.8958902,86.1673412 31.8840795,84.2514879 31.0745201,82.2399685 C32.8720634,81.9818218 33.8894152,80.5701138 33.8894152,78.1754238 C33.8894152,75.6886107 32.7069376,74.2217302 30.6295672,74.2217302 C30.0444237,74.2217302 29.5202326,74.3568776 29.0547775,74.5957898 C28.8935305,73.3207477 28.788249,72.0330513 28.788249,70.7180218 C28.788249,68.6903049 29.0193142,66.7202914 29.3961112,64.7938086 L30.2838006,64.4126626 L30.315385,64.4126626 L30.315385,71.2373521 L31.6048065,71.2373521 L31.6048065,63.4291744 L30.4649956,63.4291744 L29.5850638,63.8052586 C30.1630039,61.3007297 31.0745201,58.9136322 32.2276297,56.6520648 C32.2259674,56.6864844 32.2198721,56.7138175 32.2198721,56.7527926 C32.2514566,59.3337532 33.5558391,60.7652019 35.4824907,60.7652019 C37.6623721,60.7652019 38.9074644,59.2998399 38.9074644,56.6424476 C38.9074644,54.1561407 37.7272033,52.688754 35.6476164,52.688754 C35.2237198,52.688754 34.8314077,52.7682227 34.4690176,52.8962837 C37.0157219,49.2138973 40.3154661,46.0230019 44.181514,43.4941767 L44.181514,49.2032677 L45.4681648,49.2032677 L45.4681648,42.6751938 C51.2265093,39.2377936 58.0842144,37.2232371 65.4594612,37.2232371 C71.8073821,37.2232371 77.7796143,38.7058089 82.991049,41.3110657 C81.2555665,41.5373237 80.0608984,42.9323281 80.0608984,45.323475 C80.0913746,47.9079788 81.3940948,49.3363904 83.3207464,49.3363904 C85.5033983,49.3363904 86.7479366,47.8705222 86.7479366,45.2171793 C86.7479366,44.4720971 86.6282481,43.8287551 86.4232263,43.2770298 C90.5474909,45.9162 94.0345253,49.3146251 96.6804159,53.2399731 L95.5084664,53.7355135 L95.7683455,54.5382991 L97.150858,53.9491172 C97.26833,54.1343754 97.3991007,54.305967 97.5126939,54.4902129 L97.5126939,60.6290422 L98.800453,60.6290422 L98.800453,56.8565575 C99.8316577,58.9176815 100.643434,61.084089 101.203088,63.341607 C101.054586,63.3233848 100.91107,63.3006072 100.75204,63.3006072 C98.751691,63.3006072 97.3248495,64.7416731 97.3248495,67.3600903 C97.3553258,69.9410509 98.6580459,71.3724995 100.584698,71.3724995 C101.161529,71.3724995 101.671314,71.260636 102.109617,71.064242 C102.088561,72.8753181 101.887972,74.6474191 101.563261,76.3820636 L101.563261,74.3543467 L100.427329,74.3543467 L98.2751537,75.2700082 L98.5350328,76.0727937 L100.247243,75.3383411 L100.276056,75.3383411 L100.276056,81.1759993 C99.6787224,82.8306689 98.9411978,84.4220672 98.0784435,85.9501943 C97.0311695,86.4280187 96.3185799,87.471235 96.1479131,88.9983498 C95.0989768,90.464218 93.9181615,91.8374571 92.6359436,93.1281905 L92.6359436,85.7801212 L91.5000115,85.7801212 L89.3478358,86.6947703 L89.6054984,87.4985682 L91.3199247,86.7641156 L91.3504009,86.7641156 L91.3504009,93.5888051 L92.1810166,93.5888051 C89.3289959,96.3616042 85.9860309,98.6909983 82.2601737,100.457531 Z" id="Shape"></path>
                        <path d="M52.6842552,50 C54.8363841,50 56.0638298,48.5478713 56.0638298,45.9179886 C56.0638298,43.4541351 54.8997784,42 52.8487527,42 C50.8758768,42 49.4680851,43.4310615 49.4680851,46.0238259 C49.4992358,48.5859929 50.7840643,50 52.6842552,50 Z M52.7738817,42.8100821 C54.1352207,42.8100821 54.7478506,44.0595649 54.7478506,45.9651389 C54.7478506,47.9394319 54.102977,49.1899179 52.7580332,49.1899179 C51.5639241,49.1899179 50.7862503,48.0502853 50.7862503,46.0373691 C50.7840643,43.9301524 51.6229464,42.8100821 52.7738817,42.8100821 Z" id="Shape"></path>
                        <polygon id="Shape" points="61.3400922 44.0102424 61.3684263 44.0102424 61.3684263 51 62.6595745 51 62.6595745 43 61.5184306 43 59.3617021 43.9360819 59.6200429 44.7585894"></polygon>
                        <polygon id="Shape" points="67.9345046 44.0102424 67.9633749 44.0102424 67.9633749 51 69.2553191 51 69.2553191 43 68.112723 43 65.9574468 43.9360819 66.216724 44.7585894"></polygon>
                        <path d="M75.933859,42 C73.9587972,42 72.5531915,43.4310615 72.5531915,46.0238259 C72.5843422,48.5844881 73.8691707,50 75.7693616,50 C77.9214904,50 79.1489362,48.5478713 79.1489362,45.9179886 C79.1483897,43.4541351 77.9788733,42 75.933859,42 Z M75.8442325,49.1899179 C74.647391,49.1899179 73.8691707,48.0502853 73.8691707,46.0373691 C73.8691707,43.9301524 74.7080528,42.8100821 75.8573486,42.8100821 C77.2186876,42.8100821 77.8296779,44.0595649 77.8296779,45.9651389 C77.8291314,47.9389303 77.1880834,49.1899179 75.8442325,49.1899179 Z" id="Shape"></path>
                        <polygon id="Shape" points="43.7492174 55.00921 43.7781071 55.00921 43.7781071 62 45.070922 62 45.070922 54 43.9303337 54 41.7730496 54.935011 42.0297237 55.7579453"></polygon>
                        <polygon id="Shape" points="51.4748826 55.00921 51.4748826 62 52.7659574 62 52.7659574 54 51.6257947 54 49.4680851 54.935011 49.7271878 55.7579453 51.4454769 55.00921"></polygon>
                        <path d="M62.6595745,57.9167701 C62.6595745,55.4534967 61.4933371,54 59.4444973,54 C57.4716215,54 56.0638298,55.4304333 56.0638298,58.0250679 C56.0949805,60.5820991 57.3814485,61.9999979 59.2794534,61.9999979 C61.4359543,62.0020034 62.6595745,60.5485067 62.6595745,57.9167701 Z M57.381995,58.0386051 C57.381995,55.9313106 58.2208771,54.8122334 59.3701729,54.8122334 C60.7315119,54.8122334 61.3425022,56.0621704 61.3425022,57.966908 C61.3425022,59.9433427 60.7009077,61.1927783 59.3543243,61.1927783 C58.1613083,61.1922769 57.381995,60.0486322 57.381995,58.0386051 Z" id="Shape"></path>
                        <polygon id="Shape" points="66.8365461 55.00921 66.8632135 55.00921 66.8632135 62 68.1560284 62 68.1560284 54 67.0165513 54 64.858156 54.935011 65.1164968 55.7579453"></polygon>
                        <path d="M74.6689778,62 C76.8216532,62 78.0496454,60.5485084 78.0496454,57.9162697 C78.0496454,55.4534971 76.883408,54 74.8345683,54 C72.8595064,54 71.4539007,55.4299323 71.4539007,58.0250689 C71.4850514,60.5815994 72.7698799,62 74.6689778,62 Z M74.7596973,54.8102281 C76.1193968,54.8102281 76.7320267,56.0601655 76.7320267,57.9649035 C76.7320267,59.9413387 76.0882461,61.1907746 74.7438488,61.1907746 C73.5470072,61.1907746 72.7698799,60.0491351 72.7698799,58.037102 C72.7698799,55.9278015 73.608762,54.8102281 74.7596973,54.8102281 Z" id="Shape"></path>
                        <polygon id="Shape" points="82.254516 55.00921 82.254516 62 83.5460993 62 83.5460993 54 82.4067939 54 80.248227 54.935011 80.5049875 55.7579453 82.222282 55.00921"></polygon>
                        <path d="M90.0612214,62 C92.2142535,62 93.4397163,60.5485084 93.4397163,57.9162697 C93.4397163,55.4534971 92.2760186,54 90.2241063,54 C88.2509035,54 86.8439716,55.4299323 86.8439716,58.0250689 C86.8740343,60.5815994 88.1612621,62 90.0612214,62 Z M90.149223,54.8102281 C91.5107876,54.8102281 92.1224258,56.0601655 92.1224258,57.9649035 C92.1224258,59.9413387 91.4785386,61.1907746 90.1339184,61.1907746 C88.9385182,61.1907746 88.1607156,60.0491351 88.1607156,58.037102 C88.1612621,55.9278015 88.9991901,54.8102281 90.149223,54.8102281 Z" id="Shape"></path>
                        <path d="M38.5576924,64 C36.5838871,64 35.177305,65.428231 35.177305,68.0233273 C35.2084531,70.5813006 36.4931752,72 38.3926622,72 C40.5451591,72 41.7730496,70.5476892 41.7730496,67.9174766 C41.7730496,65.4518091 40.6025372,64 38.5576924,64 Z M38.4658875,71.1898163 C37.2691451,71.1898163 36.4931752,70.0475325 36.4931752,68.0343638 C36.4931752,65.9263811 37.3319878,64.8101837 38.4811883,64.8101837 C39.8424145,64.8101837 40.4560865,66.0598232 40.4560865,67.9621245 C40.4555401,69.9401768 39.8112664,71.1898163 38.4658875,71.1898163 Z" id="Shape"></path>
                        <path d="M47.3514857,64 C45.3773533,64 43.9716312,65.428231 43.9716312,68.0233273 C44.0016914,70.5813006 45.2871729,72 47.1864281,72 C49.3392817,72 50.5673757,70.5476892 50.5673757,67.9174766 C50.5679222,65.4518091 49.3977624,64 47.3514857,64 Z M47.2618518,71.1898163 C46.0627249,71.1898163 45.2877194,70.0475325 45.2877194,68.0343638 C45.2877194,65.9263811 46.126671,64.8101837 47.2777017,64.8101837 C48.6375138,64.8101837 49.2501944,66.0598232 49.2501944,67.9621245 C49.2501944,69.9401768 48.6069071,71.1898163 47.2618518,71.1898163 Z" id="Shape"></path>
                        <polygon id="Shape" points="52.7659574 64.9338259 53.0274114 65.76084 54.7426825 65.0084905 54.7737683 65.0084905 54.7737683 72 56.0638298 72 56.0638298 64 54.9258668 64"></polygon>
                        <polygon id="Shape" points="62.6595745 72 62.6595745 64 61.5198849 64 59.3617021 64.9338259 59.6202171 65.76084 61.3392025 65.0084905 61.3675557 65.0084905 61.3675557 72"></polygon>
                        <path d="M70.4379516,64 C68.4661688,64 67.0567376,65.428231 67.0567376,68.0233273 C67.0867953,70.5813006 68.3743563,72 70.2734542,72 C72.4261295,72 73.6524823,70.5476892 73.6524823,67.9174766 C73.6519358,65.4518091 72.4878844,64 70.4379516,64 Z M70.3461391,71.1898163 C69.1509371,71.1898163 68.3738098,70.0475325 68.3738098,68.0343638 C68.3738098,65.9263811 69.2126919,64.8101837 70.3619877,64.8101837 C71.7255127,64.8101837 72.3359565,66.0598232 72.3359565,67.9621245 C72.3359565,69.9401768 71.694362,71.1898163 70.3461391,71.1898163 Z" id="Shape"></path>
                        <polygon id="Shape" points="75.8510638 64.9338259 76.1098294 65.76084 77.8256781 65.0084905 77.8567744 65.0084905 77.8567744 72 79.1489362 72 79.1489362 64 78.0094794 64"></polygon>
                        <path d="M85.8280087,64 C83.8554598,64 82.4468085,65.428231 82.4468085,68.0233273 C82.4806861,70.5813006 83.7653018,72 85.6651778,72 C87.8169501,72 89.0425532,70.5476892 89.0425532,67.9174766 C89.0425532,65.4518091 87.8754162,64 85.8280087,64 Z M85.7400363,71.1898163 C84.5433931,71.1898163 83.7658482,70.0475325 83.7658482,68.0343638 C83.7658482,65.9263811 84.6051377,64.8101837 85.7536967,64.8101837 C87.1148101,64.8101837 87.7278848,66.0598232 87.7278848,67.9621245 C87.7278848,69.9401768 87.0847574,71.1898163 85.7400363,71.1898163 Z" id="Shape"></path>
                        <polygon id="Shape" points="90.141844 64.9338259 90.4021877 65.76084 92.1191241 65.0084905 92.1479895 65.0084905 92.1479895 72 93.4397163 72 93.4397163 64 92.2995329 64"></polygon>
                        <polygon id="Shape" points="36.2765957 75.9355027 36.5332698 76.758994 38.2516524 76.0060284 38.2810977 76.0060284 38.2810977 83 39.5744681 83 39.5744681 75 38.434991 75"></polygon>
                        <polygon id="Shape" points="48.3687943 83 48.3687943 75 47.2304481 75 45.070922 75.9355027 45.3291322 76.758994 47.0483127 76.0060284 47.0777431 76.0060284 47.0777431 83"></polygon>
                        <polygon id="Shape" points="52.7659574 75.9355027 53.0268563 76.758994 54.7426825 76.0060284 54.7737683 76.0060284 54.7737683 83 56.0638298 83 56.0638298 75 54.9258668 75"></polygon>
                        <path d="M62.7420895,75 C60.7699236,75 59.3617021,76.4289655 59.3617021,79.0230721 C59.3923038,81.5805643 60.6792117,83 62.5770593,83 C64.7295562,83 65.9574466,81.5474608 65.9574466,78.9172414 C65.9579931,76.4535423 64.7929452,75 62.7420895,75 Z M62.6541098,82.1879624 C61.4590068,82.1879624 60.6813975,81.0468966 60.6813975,79.0331034 C60.6813975,76.9295298 61.5202101,75.8095298 62.6694106,75.8095298 C64.0311832,75.8095298 64.6443088,77.0589342 64.6443088,78.9608777 C64.6437623,80.938558 63.9989422,82.1879624 62.6541098,82.1879624 Z" id="Shape"></path>
                        <polygon id="Shape" points="71.4539007 83 71.4539007 75 70.3123936 75 68.1560284 75.9355027 68.4154366 76.758994 70.1335297 76.0060284 70.1635255 76.0060284 70.1635255 83"></polygon>
                        <polygon id="Shape" points="75.8510638 75.9355027 76.1092741 76.758994 77.8256781 76.0060284 77.8567744 76.0060284 77.8567744 83 79.1489362 83 79.1489362 75 78.0067029 75"></polygon>
                        <path d="M85.8272096,75 C83.8519841,75 82.4468085,76.4289655 82.4468085,79.0230721 C82.4768687,81.5805643 83.7618037,83 85.6621521,83 C87.8150057,83 89.0425532,81.5474608 89.0425532,78.9172414 C89.0425532,76.4535423 87.8718468,75 85.8272096,75 Z M85.7370292,82.1879624 C84.540635,82.1879624 83.7623502,81.0468966 83.7623502,79.0331034 C83.7623502,76.9295298 84.6018484,75.8095298 85.7506929,75.8095298 C87.1121447,75.8095298 87.7237322,77.0589342 87.7237322,78.9608777 C87.7237322,80.938558 87.0820845,82.1879624 85.7370292,82.1879624 Z" id="Shape"></path>
                        <path d="M90.141844,79.0230731 C90.1719066,81.5805646 91.4569481,83 93.357454,83 C95.5099395,83 96.7375887,81.5479628 96.7375887,78.917744 C96.7375887,76.453544 95.5706114,75.0000021 93.5219786,75.0000021 C91.5444031,74.9979958 90.141844,76.4264594 90.141844,79.0230731 Z M95.4186584,78.9593741 C95.4186584,80.9365523 94.7769575,82.1864579 93.4317907,82.1864579 C92.2347508,82.1864579 91.4569481,81.0453924 91.4569481,79.0315998 C91.4569481,76.9280267 92.2965158,75.808027 93.4470953,75.808027 C94.8070201,75.808027 95.4186584,77.057431 95.4186584,78.9593741 Z" id="Shape"></path>
                        <path d="M46.2527279,86 C44.2827478,86 42.8723404,87.4287327 42.8723404,90.0238289 C42.9029421,92.5823039 44.18985,94 46.0898835,94 C48.2407411,94 49.4680851,92.5471876 49.4680851,89.9174766 C49.4680851,87.4523108 48.3008514,86 46.2527279,86 Z M46.1625624,93.1898163 C44.9674593,93.1898163 44.18985,92.0515457 44.18985,90.0343638 C44.18985,87.9298928 45.0286626,86.8101837 46.1778632,86.8101837 C47.5390894,86.8101837 48.1527614,88.0598232 48.1527614,89.9656362 C48.1527614,91.9396752 47.5063019,93.1898163 46.1625624,93.1898163 Z" id="Shape"></path>
                        <polygon id="Shape" points="51.6666667 86.9373014 51.9259002 87.7610063 53.6433917 87.0083641 53.6728122 87.0083641 53.6728122 94 54.964539 94 54.964539 86 53.8238005 86"></polygon>
                        <polygon id="Shape" points="59.3617021 86.9373014 59.6197386 87.7610063 61.3388718 87.0083641 61.3660627 87.0083641 61.3660627 94 62.6595745 94 62.6595745 86 61.5203297 86"></polygon>
                        <path d="M68.2385435,86 C66.2663776,86 64.858156,87.4287327 64.858156,90.0238289 C64.8887577,92.5823039 66.1756656,94 68.0735133,94 C70.2276496,94 71.4539007,92.5471876 71.4539007,89.9174766 C71.4539007,87.4523108 70.2872135,86 68.2385435,86 Z M68.1505638,93.1898163 C66.9554608,93.1898163 66.1778514,92.0515457 66.1778514,90.0343638 C66.1778514,87.9298928 67.0177569,86.8101837 68.1658646,86.8101837 C69.5270908,86.8101837 70.138577,88.0598232 70.138577,89.9656362 C70.138577,91.9396752 69.4970356,93.1898163 68.1505638,93.1898163 Z" id="Shape"></path>
                        <polygon id="Shape" points="74.751773 86.9373014 75.0111375 87.7610063 76.7278306 87.0083641 76.757266 87.0083641 76.757266 94 78.0496454 94 78.0496454 86 76.9111074 86"></polygon>
                        <path d="M84.728718,86 C82.7545298,86 81.3475177,87.4287327 81.3475177,90.0238289 C81.3797561,92.5823039 82.6638253,94 84.5642478,94 C86.71602,94 87.9432624,92.5471876 87.9432624,89.9174766 C87.9432624,87.4523108 86.7744862,86 84.728718,86 Z M84.6391063,93.1898163 C83.4424631,93.1898163 82.6643717,92.0515457 82.6643717,90.0343638 C82.6643717,87.9298928 83.502022,86.8101837 84.6544059,86.8101837 C86.0138801,86.8101837 86.6253156,88.0598232 86.6253156,89.9656362 C86.6253156,91.9396752 85.9816417,93.1898163 84.6391063,93.1898163 Z" id="Shape"></path>
                    </g>
                </g>
            </g>
        </g>
    </g>
</svg>