<?xml version="1.0" encoding="UTF-8"?>
<svg width="1391px" height="717px" viewBox="0 0 1391 717" version="1.1" xmlns="http://www.w3.org/2000/svg" xmlns:xlink="http://www.w3.org/1999/xlink">
    <!-- Generator: Sketch 49.3 (51167) - http://www.bohemiancoding.com/sketch -->
    <title>Ship</title>
    <desc>Created with Sketch.</desc>
    <defs></defs>
    <g id="Page-1" stroke="none" stroke-width="1" fill="none" fill-rule="evenodd" opacity="0.17">
        <g id="LANDING-1440-+" transform="translate(-25.000000, -1508.000000)" fill-rule="nonzero">
            <g id="Ship" transform="translate(25.000000, 1508.000000)">
                <path d="M305,143.729451 L291.521262,143.729451 L291.521262,107 L275.526749,107 L275.526749,143.729451 L262.980796,143.729451 L262.980796,122.166672 L255.049383,122.166672 L255.049383,143.729451 L187,143.729451 L187,293 L305,293 L305,143.729451 Z M221.61454,172.746666 C215.010974,172.746666 208.665295,172.746666 202.061728,172.746666 C202.061728,167.512007 202.061728,162.157947 202.061728,156.926002 C208.665295,156.926002 215.010974,156.926002 221.61454,156.926002 C221.61454,162.157947 221.61454,167.512007 221.61454,172.746666 Z M254.917695,172.746666 C248.44856,172.746666 241.96845,172.746666 235.364883,172.746666 C235.364883,167.512007 235.364883,162.157947 235.364883,156.926002 C241.971193,156.926002 248.451303,156.926002 254.917695,156.926002 C254.917695,162.157947 254.917695,167.512007 254.917695,172.746666 Z M288.22085,172.746666 C281.737997,172.746666 275.271605,172.746666 268.788752,172.746666 C268.788752,167.512007 268.788752,162.157947 268.788752,156.926002 C275.271605,156.926002 281.737997,156.926002 288.22085,156.926002 C288.22085,162.157947 288.22085,167.512007 288.22085,172.746666 Z" id="Shape" fill="#00E676"></path>
                <path d="M307.997238,308.051954 L132.112362,308.051954 L132.112362,260 L116.813101,260 L116.813101,308.051954 L33,308.051954 L33,458 L308,458 L308,308.051954 L307.997238,308.051954 Z M86.2118178,341.799259 L62.794751,341.799259 L62.794751,326.041795 L86.2118178,326.041795 L86.2118178,341.799259 Z M126.389295,341.799259 C118.542175,341.799259 110.695054,341.799259 102.969466,341.799259 C102.969466,336.554948 102.969466,331.299734 102.969466,326.041795 C110.695054,326.041795 118.542175,326.041795 126.389295,326.041795 C126.389295,331.297009 126.389295,336.554948 126.389295,341.799259 Z M166.44524,341.799259 C158.584309,341.799259 150.872532,341.799259 143.160754,341.799259 C143.160754,336.554948 143.160754,331.299734 143.160754,326.041795 C150.872532,326.041795 158.584309,326.041795 166.44524,326.041795 C166.44524,331.297009 166.44524,336.554948 166.44524,341.799259 Z M206.484613,341.799259 C198.772835,341.799259 190.911904,341.799259 183.064784,341.799259 C183.064784,336.554948 183.064784,331.299734 183.064784,326.041795 C190.911904,326.041795 198.772835,326.041795 206.484613,326.041795 C206.484613,331.297009 206.484613,336.554948 206.484613,341.799259 Z M246.66209,341.799259 C238.81497,341.799259 230.967849,341.799259 223.256072,341.799259 C223.256072,336.554948 223.256072,331.299734 223.256072,326.041795 C230.967849,326.041795 238.81497,326.041795 246.66209,326.041795 C246.66209,331.297009 246.66209,336.554948 246.66209,341.799259 Z M286.57993,341.799259 L263.295444,341.799259 L263.295444,326.041795 L286.57993,326.041795 L286.57993,341.799259 Z" id="Shape" fill="#00E676"></path>
                <path d="M1072.87167,327 L1079,327 L1079,320.762181 L1079,268.235065 L1079,262 L1072.87167,262 L952.263901,262 L946,262 L946,268.235065 L946,320.762181 L946,327 L952.263901,327 L1072.87167,327 Z M1066.4722,274.47013 L1066.4722,288.923142 L1061.66914,274.47013 L1066.4722,274.47013 Z M1049.67255,274.47013 L1063.00547,314.52987 L1057.13721,314.52987 L1043.81812,274.47013 L1049.67255,274.47013 Z M1031.8243,274.47013 L1045.14339,314.52987 L1039.82018,314.52987 L1026.48726,274.47013 L1031.8243,274.47013 Z M1014.3551,274.47013 L1027.82359,314.52987 L1021.15022,314.52987 L1007.69555,274.47013 L1014.3551,274.47013 Z M995.563396,274.47013 L1009.03466,314.52987 L1003.55928,314.52987 L990.240186,274.47013 L995.563396,274.47013 Z M978.246365,274.47013 L991.565455,314.52987 L985.711032,314.52987 L972.378107,274.47013 L978.246365,274.47013 Z M958.525036,274.47013 L960.381519,274.47013 L973.714443,314.52987 L968.3774,314.52987 L958.525036,285.078553 L958.525036,274.47013 Z" id="Shape" fill="#00E676"></path>
                <path d="M952.263901,440 L946,440 L946,446.343072 L946,498.775105 L946,505 L952.263901,505 L1072.87167,505 L1079,505 L1079,498.775105 L1079,446.343072 L1079,440 L1072.87167,440 L952.263901,440 Z M968.3774,492.555706 L958.525036,463.030739 L958.525036,452.565219 L960.381519,452.565219 L973.714443,492.555706 L968.3774,492.555706 Z M985.708265,492.555706 L972.375341,452.565219 L978.243598,452.565219 L991.562689,492.555706 L985.708265,492.555706 Z M1003.55928,492.555706 L990.240186,452.565219 L995.563396,452.565219 L1009.03466,492.555706 L1003.55928,492.555706 Z M1021.15022,492.555706 L1007.69555,452.565219 L1014.35787,452.565219 L1027.82636,492.555706 L1021.15022,492.555706 Z M1039.82018,492.555706 L1026.48726,452.565219 L1031.8243,452.565219 L1045.14339,492.555706 L1039.82018,492.555706 Z M1057.13721,492.555706 L1043.81812,452.565219 L1049.67255,452.565219 L1063.00547,492.555706 L1057.13721,492.555706 Z M1066.4722,467.004778 L1061.66914,452.567968 L1066.4722,452.567968 L1066.4722,467.004778 Z" id="Shape" fill="#00E676"></path>
                <path d="M1072.74261,433 L1079,433 L1079,426.847993 L1079,339.152007 L1079,333 L1072.74261,333 L952.257393,333 L946,333 L946,339.152007 L946,426.847993 L946,433 L952.257393,433 L1072.74261,433 Z M1055.8388,345.304013 L1066.48521,376.333062 L1066.48521,392.294584 L1050.5073,345.304013 L1055.8388,345.304013 Z M1038.52595,345.304013 L1064.08618,420.695987 L1058.23784,420.695987 L1032.67484,345.304013 L1038.52595,345.304013 Z M1020.69348,345.304013 L1046.25371,420.695987 L1040.92222,420.695987 L1015.36198,345.304013 L1020.69348,345.304013 Z M1003.25625,345.304013 L1028.81925,420.695987 L1022.1528,420.695987 L996.589805,345.304013 L1003.25625,345.304013 Z M984.608445,345.304013 L1010.04707,420.695987 L1004.71557,420.695987 L979.155338,345.304013 L984.608445,345.304013 Z M967.171214,345.304013 L992.734212,420.695987 L986.872052,420.695987 L961.311818,345.304013 L967.171214,345.304013 Z M958.650215,372.539686 L974.887928,420.695987 L969.57025,420.695987 L958.647451,388.368061 L958.647451,372.539686 L958.650215,372.539686 Z" id="Shape" fill="#00E676"></path>
                <path d="M929.871924,433 L936,433 L936,426.847993 L936,339.152007 L936,333 L929.871924,333 L809.128076,333 L803,333 L803,339.152007 L803,426.847993 L803,433 L809.128076,433 L929.871924,433 Z M912.934641,345.304013 L923.469952,376.333062 L923.469952,392.294584 L907.61442,345.304013 L912.934641,345.304013 Z M895.482766,345.304013 L921.068521,420.695987 L915.200508,420.695987 L889.614753,345.304013 L895.482766,345.304013 Z M877.618663,345.304013 L903.204418,420.695987 L897.884197,420.695987 L872.298442,345.304013 L877.618663,345.304013 Z M860.302353,345.304013 L885.890874,420.695987 L879.228839,420.695987 L853.640318,345.304013 L860.302353,345.304013 Z M841.511431,345.304013 L867.099952,420.695987 L861.6414,420.695987 L836.177376,345.304013 L841.511431,345.304013 Z M824.056789,345.304013 L849.642544,420.695987 L843.77453,420.695987 L818.32434,345.304013 L824.056789,345.304013 Z M815.530048,372.539686 L831.781208,420.695987 L826.444387,420.695987 L815.527281,388.368061 L815.527281,372.539686 L815.530048,372.539686 Z" id="Shape" fill="#00E676"></path>
                <path d="M809.392822,440 L803,440 L803,446.343072 L803,498.775105 L803,505 L809.392822,505 L929.742607,505 L936,505 L936,498.775105 L936,446.343072 L936,440 L929.742607,440 L809.392822,440 Z M825.367968,492.555706 L815.512022,463.030739 L815.512022,452.565219 L817.380395,452.565219 L830.821076,492.555706 L825.367968,492.555706 Z M842.805199,492.555706 L829.364519,452.565219 L835.212859,452.565219 L848.667359,492.555706 L842.805199,492.555706 Z M860.651483,492.555706 L847.196983,452.565219 L852.66391,452.565219 L866.104591,492.555706 L860.651483,492.555706 Z M878.08595,492.555706 L864.766879,452.565219 L871.433324,452.565219 L884.738576,492.555706 L878.08595,492.555706 Z M896.722699,492.555706 L883.417448,452.565219 L888.735126,452.565219 L902.054197,492.555706 L896.722699,492.555706 Z M914.15993,492.555706 L900.719249,452.565219 L906.581409,452.565219 L920.024854,492.555706 L914.15993,492.555706 Z M923.48245,467.004778 L918.560005,452.567968 L923.48245,452.567968 L923.48245,467.004778 Z" id="Shape" fill="#00E676"></path>
                <path d="M929.742607,327 L936,327 L936,320.762181 L936,268.235065 L936,262 L929.742607,262 L809.392822,262 L803,262 L803,268.235065 L803,320.762181 L803,327 L809.392822,327 L929.742607,327 Z M923.48245,274.47013 L923.48245,288.923142 L918.560005,274.47013 L923.48245,274.47013 Z M906.578645,274.47013 L920.02209,314.52987 L914.15993,314.52987 L900.719249,274.47013 L906.578645,274.47013 Z M888.735126,274.47013 L902.054197,314.52987 L896.725463,314.52987 L883.420212,274.47013 L888.735126,274.47013 Z M871.433324,274.47013 L884.738576,314.52987 L878.08595,314.52987 L864.766879,274.47013 L871.433324,274.47013 Z M852.661146,274.47013 L866.101827,314.52987 L860.648719,314.52987 L847.194219,274.47013 L852.661146,274.47013 Z M835.212859,274.47013 L848.667359,314.52987 L842.805199,314.52987 L829.364519,274.47013 L835.212859,274.47013 Z M815.512022,274.47013 L817.380395,274.47013 L830.821076,314.52987 L825.367968,314.52987 L815.512022,285.078553 L815.512022,274.47013 Z" id="Shape" fill="#00E676"></path>
                <path d="M774.755778,505 L781,505 L781,498.775105 L781,446.343072 L781,440 L774.755778,440 L654.379666,440 L648,440 L648,446.343072 L648,498.775105 L648,505 L654.379666,505 L774.755778,505 Z M768.500499,452.567968 L768.500499,467.004778 L763.563721,452.567968 L768.500499,452.567968 Z M751.578352,452.567968 L765.037015,492.558454 L759.174246,492.558454 L745.729404,452.567968 L751.578352,452.567968 Z M733.746799,452.567968 L747.053433,492.558454 L741.735202,492.558454 L728.414748,452.567968 L733.746799,452.567968 Z M716.429379,452.567968 L729.749834,492.558454 L723.082696,492.558454 L709.776062,452.567968 L716.429379,452.567968 Z M697.658014,452.567968 L711.113912,492.558454 L705.781861,492.558454 L692.201575,452.567968 L697.658014,452.567968 Z M680.218971,452.567968 L693.663812,492.558454 L687.814864,492.558454 L674.358966,452.567968 L680.218971,452.567968 Z M660.516086,452.567968 L662.373597,452.567968 L675.829495,492.558454 L670.362,492.558454 L660.51885,463.033487 L660.51885,452.567968 L660.516086,452.567968 Z" id="Shape" fill="#00E676"></path>
                <path d="M504,366.343072 L504,418.775105 L504,425 L510.379666,425 L630.755778,425 L637,425 L637,418.775105 L637,366.343072 L637,360 L630.755778,360 L510.379666,360 L504,360 L504,366.343072 Z M624.497735,372.565219 L624.497735,387.00203 L619.560957,372.565219 L624.497735,372.565219 Z M607.578352,372.565219 L621.037015,412.555706 L615.174246,412.555706 L601.729404,372.565219 L607.578352,372.565219 Z M589.744035,372.565219 L603.050669,412.555706 L597.732438,412.555706 L584.411984,372.565219 L589.744035,372.565219 Z M572.429379,372.565219 L585.749834,412.555706 L579.082696,412.555706 L565.776062,372.565219 L572.429379,372.565219 Z M553.65525,372.565219 L567.111148,412.555706 L561.779096,412.555706 L548.198811,372.565219 L553.65525,372.565219 Z M536.218971,372.565219 L549.661048,412.555706 L543.8121,412.555706 L530.356202,372.565219 L536.218971,372.565219 Z M516.516086,372.565219 L518.370833,372.565219 L531.826731,412.555706 L526.359236,412.555706 L516.516086,383.030739 L516.516086,372.565219 Z" id="Shape" fill="#00E676"></path>
                <path d="M774.755648,425 L781,425 L781,418.775105 L781,366.343072 L781,360 L774.755648,360 L654.379798,360 L648,360 L648,366.343072 L648,418.775105 L648,425 L654.379798,425 L774.755648,425 Z M768.497475,372.565219 L768.497475,387.00203 L763.560594,372.565219 L768.497475,372.565219 Z M751.577741,372.565219 L765.036683,412.555706 L759.173792,412.555706 L745.728671,372.565219 L751.577741,372.565219 Z M733.743053,372.565219 L747.049964,412.555706 L741.734386,412.555706 L728.413655,372.565219 L733.743053,372.565219 Z M716.428037,372.565219 L729.748769,412.555706 L723.081492,412.555706 L709.774582,372.565219 L716.428037,372.565219 Z M697.653518,372.565219 L711.109696,412.555706 L705.777533,412.555706 L692.196966,372.565219 L697.653518,372.565219 Z M680.214112,372.565219 L693.659233,412.555706 L687.810163,412.555706 L674.353985,372.565219 L680.214112,372.565219 Z M660.513582,372.565219 L662.371132,372.565219 L675.82731,412.555706 L670.359701,412.555706 L660.516346,383.030739 L660.516346,372.565219 L660.513582,372.565219 Z" id="Shape" fill="#00E676"></path>
                <path d="M630.755778,347 L637,347 L637,340.775105 L637,288.343072 L637,282 L630.755778,282 L510.379666,282 L504,282 L504,288.343072 L504,340.775105 L504,347 L510.379666,347 L630.755778,347 Z M624.497735,294.565219 L624.497735,309.00203 L619.560957,294.565219 L624.497735,294.565219 Z M607.578352,294.565219 L621.037015,334.555706 L615.174246,334.555706 L601.729404,294.565219 L607.578352,294.565219 Z M589.744035,294.565219 L603.050669,334.555706 L597.732438,334.555706 L584.411984,294.565219 L589.744035,294.565219 Z M572.429379,294.565219 L585.749834,334.555706 L579.082696,334.555706 L565.776062,294.565219 L572.429379,294.565219 Z M553.65525,294.565219 L567.111148,334.555706 L561.779096,334.555706 L548.198811,294.565219 L553.65525,294.565219 Z M536.218971,294.565219 L549.661048,334.555706 L543.8121,334.555706 L530.356202,294.565219 L536.218971,294.565219 Z M516.516086,294.565219 L518.370833,294.565219 L531.826731,334.555706 L526.359236,334.555706 L516.516086,305.030739 L516.516086,294.565219 Z" id="Shape" fill="#00E676"></path>
                <path d="M648,288.343072 L648,340.775105 L648,347 L654.379798,347 L774.755648,347 L781,347 L781,340.775105 L781,288.343072 L781,282 L774.755648,282 L654.379798,282 L648,282 L648,288.343072 Z M768.500239,294.565219 L768.500239,309.00203 L763.563359,294.565219 L768.500239,294.565219 Z M751.580505,294.565219 L765.039447,334.555706 L759.176556,334.555706 L745.731435,294.565219 L751.580505,294.565219 Z M733.745817,294.565219 L747.052728,334.555706 L741.737151,334.555706 L728.416419,294.565219 L733.745817,294.565219 Z M716.430801,294.565219 L729.751533,334.555706 L723.084256,334.555706 L709.777346,294.565219 L716.430801,294.565219 Z M697.656282,294.565219 L711.11246,334.555706 L705.780297,334.555706 L692.19973,294.565219 L697.656282,294.565219 Z M680.216876,294.565219 L693.661997,334.555706 L687.812927,334.555706 L674.356749,294.565219 L680.216876,294.565219 Z M660.516346,294.565219 L662.373896,294.565219 L675.830074,334.555706 L670.362465,334.555706 L660.51911,305.030739 L660.51911,294.565219 L660.516346,294.565219 Z" id="Shape" fill="#00E676"></path>
                <path d="M504,446.343072 L504,498.775105 L504,505 L510.386319,505 L630.613681,505 L637,505 L637,498.775105 L637,446.343072 L637,440 L630.613681,440 L510.386319,440 L504,440 L504,446.343072 Z M624.497945,452.565219 L624.497945,467.00203 L619.566701,452.565219 L624.497945,452.565219 Z M607.476043,452.565219 L620.903052,492.555706 L615.182147,492.555706 L601.755138,452.565219 L607.476043,452.565219 Z M589.647914,452.565219 L603.088727,492.555706 L597.762653,492.555706 L584.332884,452.565219 L589.647914,452.565219 Z M572.366473,452.565219 L585.65819,492.555706 L579.012331,492.555706 L565.706809,452.565219 L572.366473,452.565219 Z M553.748682,452.565219 L567.040399,492.555706 L561.714324,492.555706 L548.284555,452.565219 L553.748682,452.565219 Z M536.318144,452.565219 L549.761719,492.555706 L543.905522,492.555706 L530.475753,452.565219 L536.318144,452.565219 Z M516.637347,452.565219 L518.365767,452.565219 L531.930828,492.555706 L526.483268,492.555706 L516.637347,463.030739 L516.637347,452.565219 Z" id="Shape" fill="#00E676"></path>
                <path d="M168,539 C168,534.037037 163.954165,530 159.003967,530 C154.037902,530 150,534.029101 150,539 C150,543.962963 154.037902,548 159.003967,548 C163.954165,548 168,543.960317 168,539 Z" id="Shape" fill="#00E676"></path>
                <path d="M1230.80799,677.159314 C1291.03661,610.438561 1343.27853,537.564956 1391,461.26796 C1312.70335,462.971491 1234.26319,464.816531 1156.10728,466.520062 C1138.30419,484.077869 1120.48177,501.649282 1102.66211,519.207088 C866.720693,519.207088 630.770995,519.207088 394.942726,519.207088 L395.32909,206.453898 L395.337369,206.456619 L487.051889,66.9819977 L558.435386,28.4429934 L558.435386,48.4989503 L543.149173,48.4989503 L543.149173,67.7711738 L552.325317,99.623952 L560.165745,99.623952 C560.698375,103.812028 562.831656,106.307457 566.808445,109.973043 C567.216887,110.375795 567.61153,110.764941 568.141401,111.154086 C572.935073,115.744914 572.661859,121.247376 569.203901,124.001328 L566.413802,122.953629 L565.351301,122.564483 L564.426787,122.953629 L559.376459,124.793225 C555.388631,123.086972 553.523045,118.765553 554.856001,112.724274 C549.262003,112.860339 547.137001,121.636521 550.338302,128.322747 L502.205635,146.805795 C501.143134,146.549993 500.21586,146.283306 499.291347,146.283306 C496.89589,146.283306 494.770888,147.208547 493.164718,148.778735 C491.572347,150.348923 490.783061,152.321863 490.783061,154.670342 L490.783061,155.984729 L482.00156,155.984729 L473.493274,155.984729 L473.493274,164.374486 L473.493274,235.552724 L473.493274,243.942481 L482.00156,243.942481 L646.711267,243.942481 L655.340982,243.942481 L655.340982,235.552724 L655.340982,164.374486 L655.340982,155.984729 L646.711267,155.984729 L640.327983,155.984729 L640.327983,154.670342 C640.327983,152.321863 639.403469,150.348923 637.797299,148.778735 C636.340155,147.208547 634.217913,146.283306 631.957684,146.283306 C631.019372,146.283306 630.230086,146.416649 629.427001,146.686058 L581.838002,128.725499 C585.961057,121.90593 584.628102,111.290151 577.714947,104.337238 C575.86316,102.633706 573.997574,101.060797 572.134748,99.6266733 L579.580533,99.6266733 L588.756676,67.7738951 L588.756676,48.5016716 L574.394977,48.5016716 L574.394977,22.1486341 L587.420961,17.0325962 L579.307318,0 L469.116323,36.0408539 L354.92922,199.367641 C354.92922,300.276045 354.71672,401.116417 354.680844,502.204426 C338.997227,493.270409 323.294293,484.333671 307.605157,475.43503 C205.113843,475.43503 102.498341,475.43503 0.13121508,475.43503 C-1.72333183,558.401925 16.0825263,626.562244 53.43564,679.782644 C44.5299512,681.09431 33.0880591,677.249117 26.7102944,683.714918 C18.8643466,691.669269 24.0581819,705.605029 22.7224666,716.615396 C416.476996,716.615396 810.355714,716.615396 1204.113,716.615396 C1251.0231,720.286425 1294.35106,696.962191 1230.80799,677.159314 Z M495.424947,154.670342 C495.424947,153.622643 495.833389,152.711009 496.622676,152.052455 C497.031118,151.527245 497.682417,151.257836 498.488262,151.004756 L499.550762,154.025395 L502.476089,152.964089 C502.735505,153.486578 503.00872,154.025395 503.00872,154.667621 L503.00872,155.982007 L495.427707,155.982007 L495.427707,154.670342 L495.424947,154.670342 Z M504.068461,227.032344 L490.647833,187.181674 L490.647833,172.764244 L493.164718,172.764244 L511.511486,227.032344 L504.068461,227.032344 Z M527.998187,227.032344 L509.64866,172.764244 L517.627075,172.764244 L535.841375,227.032344 L527.998187,227.032344 Z M552.325317,227.032344 L533.97303,172.764244 L541.283587,172.764244 L559.633115,227.032344 L552.325317,227.032344 Z M576.119816,227.032344 L557.770289,172.764244 L566.808445,172.764244 L585.155213,227.032344 L576.119816,227.032344 Z M601.641914,227.032344 L583.292386,172.764244 L590.738171,172.764244 L609.090459,227.032344 L601.641914,227.032344 Z M625.436413,227.032344 L607.222113,172.764244 L615.062541,172.764244 L633.412069,227.032344 L625.436413,227.032344 Z M638.067754,172.764244 L638.067754,192.428334 L631.546483,172.764244 L638.067754,172.764244 Z M628.091285,154.670342 C628.091285,153.892051 628.36174,153.233498 628.756383,152.711009 L632.487555,154.025395 L633.550056,151.393901 C633.809471,151.527245 634.217913,151.796653 634.612557,152.052455 C635.142427,152.711009 635.675057,153.622643 635.675057,154.670342 L635.675057,155.984729 L628.094045,155.984729 L628.094045,154.670342 L628.091285,154.670342 Z M577.452771,133.316327 L624.238685,151.007477 C623.708814,152.055176 623.449398,153.369562 623.449398,154.670342 L623.449398,155.984729 L507.661645,155.984729 L507.661645,154.670342 C507.661645,153.489299 507.388431,152.321863 506.993788,151.257836 L554.188143,133.044197 C557.510873,135.542348 561.893344,136.453982 566.154386,136.453982 C570.266402,136.456703 574.25423,135.409004 577.452771,133.316327 Z M576.784914,96.7393775 L559.373699,96.7393775 L557.902756,91.7594044 L577.04157,95.8250218 L576.784914,96.7393775 Z M578.909915,89.3973189 L555.918501,84.4146246 L553.24983,75.5050991 L581.167385,81.5327713 L578.909915,89.3973189 Z M585.2932,67.5017654 L583.03573,75.2356907 L551.795446,68.4297276 L551.795446,60.0399698 L585.2932,67.2486848 L585.2932,67.5017654 Z M585.2932,51.3835249 L585.2932,60.56518 L551.795446,53.356465 L551.795446,51.3835249 L585.2932,51.3835249 Z M449.712574,569.420456 L409.017412,569.420456 L409.017412,548.439258 L449.712574,548.439258 L449.712574,569.420456 Z M543.298199,569.420456 L502.603037,569.420456 L502.603037,548.439258 L543.298199,548.439258 L543.298199,569.420456 Z M634.880252,569.420456 C621.321637,569.420456 607.763022,569.420456 594.07194,569.420456 C594.07194,562.464821 594.07194,555.394892 594.07194,548.439258 C607.763022,548.439258 621.321637,548.439258 634.880252,548.439258 C634.880252,555.394892 634.880252,562.464821 634.880252,569.420456 Z M726.478862,569.420456 C712.920248,569.420456 699.361633,569.420456 685.78646,569.420456 C685.78646,562.464821 685.78646,555.394892 685.78646,548.439258 C699.361633,548.439258 712.920248,548.439258 726.478862,548.439258 C726.478862,555.394892 726.478862,562.464821 726.478862,569.420456 Z M817.920168,569.420456 C804.369832,569.420456 790.811218,569.420456 777.249844,569.420456 C777.249844,562.464821 777.249844,555.394892 777.249844,548.439258 C790.811218,548.439258 804.369832,548.439258 817.920168,548.439258 C817.920168,555.394892 817.920168,562.464821 817.920168,569.420456 Z M909.518778,569.420456 C895.960164,569.420456 882.401549,569.420456 868.851214,569.420456 C868.851214,562.464821 868.851214,555.394892 868.851214,548.439258 C882.401549,548.439258 895.960164,548.439258 909.518778,548.439258 C909.518778,555.394892 909.518778,562.464821 909.518778,569.420456 Z M1001.10083,569.420456 C987.542216,569.420456 973.989121,569.420456 960.430507,569.420456 C960.430507,562.464821 960.430507,555.394892 960.430507,548.439258 C973.989121,548.439258 987.542216,548.439258 1001.10083,548.439258 C1001.10083,555.394892 1001.10083,562.464821 1001.10083,569.420456 Z M1092.56973,569.420456 L1051.89113,569.420456 L1051.89113,548.439258 L1092.56973,548.439258 L1092.56973,569.420456 Z" id="Shape" fill="#00E676"></path>
                <g id="anchor" transform="translate(104.000000, 517.000000)" fill="#000000">
                    <path d="M3.95851045,114.812457 L14.6228501,114.812457 C21.8018726,148.321752 59.585647,167 94.500051,167 C129.471408,167 167.20646,148.284242 174.377252,114.812457 L185.041592,114.812457 C188.561146,114.812457 190.323722,110.596356 187.834915,108.130821 L165.768482,86.2678284 C164.225817,84.7393857 161.7245,84.7393857 160.181506,86.2678284 L138.115073,108.130821 C135.626267,110.596682 137.388842,114.812457 140.908397,114.812457 L152.478715,114.812457 C145.7991,132.529149 124.508279,143.055051 105.034354,145.477531 L105.034354,83.4999316 L122.153131,83.4999316 C124.334787,83.4999316 126.103618,81.7474087 126.103618,79.5858659 L126.103618,66.5389802 C126.103618,64.3774374 124.334787,62.6249145 122.153131,62.6249145 L105.034354,62.6249145 L105.034354,60.8407529 C117.307529,56.5424564 126.101972,44.9480153 126.103618,31.3163029 C126.105593,14.2770702 112.147206,0.24057825 94.9510649,0.00312493098 C77.2900836,-0.241178004 62.8961551,13.8703336 62.8961551,31.3123889 C62.8961551,44.9457321 71.6912559,56.5418041 83.965419,60.8407529 L83.965419,62.6249145 L66.8466421,62.6249145 C64.6649856,62.6249145 62.8961551,64.3774374 62.8961551,66.5389802 L62.8961551,79.5858659 C62.8961551,81.7474087 64.6649856,83.4999316 66.8466421,83.4999316 L83.965419,83.4999316 L83.965419,145.477531 C64.5632606,143.064184 43.2029774,132.535347 36.5210579,114.812457 L48.0913759,114.812457 C51.6109306,114.812457 53.3735062,110.596356 50.8846994,108.130821 L28.8182667,86.2678284 C27.2756015,84.7393857 24.7742848,84.7393857 23.2312904,86.2678284 L1.16485774,108.130821 C-1.32361986,110.596356 0.438955754,114.812457 3.95851045,114.812457 Z M94.500051,20.8748803 C100.308913,20.8748803 105.034683,25.5570814 105.034683,31.3123889 C105.034683,37.0676963 100.308913,41.7498974 94.500051,41.7498974 C88.6911891,41.7498974 83.965419,37.0676963 83.965419,31.3123889 C83.965419,25.5570814 88.6911891,20.8748803 94.500051,20.8748803 Z" id="Shape"></path>
                </g>
            </g>
        </g>
    </g>
</svg>