<?xml version="1.0" encoding="UTF-8"?>
<svg width="180px" height="163px" viewBox="0 0 180 163" version="1.1" xmlns="http://www.w3.org/2000/svg" xmlns:xlink="http://www.w3.org/1999/xlink">
    <!-- Generator: Sketch 49.3 (51167) - http://www.bohemiancoding.com/sketch -->
    <title>decentralized</title>
    <desc>Created with Sketch.</desc>
    <defs></defs>
    <g id="Page-1" stroke="none" stroke-width="1" fill="none" fill-rule="evenodd" opacity="0.75">
        <g id="LANDING-1440-+" transform="translate(-955.000000, -937.000000)" fill="#00E676" fill-rule="nonzero">
            <g id="How" transform="translate(119.000000, 809.000000)">
                <g id="Group-14" transform="translate(0.000000, 100.000000)">
                    <g id="decentralized" transform="translate(836.000000, 28.000000)">
                        <path d="M33,0 L3,0 C1.34325,0 0,1.21532143 0,2.71428571 L0,24.4285714 C0,25.9275357 1.34325,27.1428571 3,27.1428571 L15,27.1428571 L15,32.5714286 L3,32.5714286 L3,38 L33,38 L33,32.5714286 L21,32.5714286 L21,27.1428571 L33,27.1428571 C34.65675,27.1428571 36,25.9275357 36,24.4285714 L36,2.71428571 C36,1.21532143 34.65675,0 33,0 Z M30,21.7142857 L6,21.7142857 L6,5.42857143 L30,5.42857143 L30,21.7142857 Z" id="Shape"></path>
                        <path d="M177,0 L147,0 C145.34325,0 144,1.21532143 144,2.71428571 L144,24.4285714 C144,25.9275357 145.34325,27.1428571 147,27.1428571 L159,27.1428571 L159,32.5714286 L147,32.5714286 L147,38 L177,38 L177,32.5714286 L165,32.5714286 L165,27.1428571 L177,27.1428571 C178.65675,27.1428571 180,25.9275357 180,24.4285714 L180,2.71428571 C180,1.21532143 178.65675,0 177,0 Z M174,21.7142857 L150,21.7142857 L150,5.42857143 L174,5.42857143 L174,21.7142857 Z" id="Shape"></path>
                        <path d="M33,152.142857 C34.65675,152.142857 36,150.927536 36,149.428571 L36,127.714286 C36,126.215321 34.65675,125 33,125 L3,125 C1.34325,125 0,126.215321 0,127.714286 L0,149.428571 C0,150.927536 1.34325,152.142857 3,152.142857 L15,152.142857 L15,157.571429 L0,157.571429 L0,163 L36,163 L36,157.571429 L21,157.571429 L21,152.142857 L33,152.142857 Z M6,146.714286 L6,130.428571 L30,130.428571 L30,146.714286 L6,146.714286 Z" id="Shape"></path>
                        <path d="M177,152.142857 C178.65675,152.142857 180,150.927536 180,149.428571 L180,127.714286 C180,126.215321 178.65675,125 177,125 L147,125 C145.34325,125 144,126.215321 144,127.714286 L144,149.428571 C144,150.927536 145.34325,152.142857 147,152.142857 L159,152.142857 L159,157.571429 L144,157.571429 L144,163 L180,163 L180,157.571429 L165,157.571429 L165,152.142857 L177,152.142857 Z M150,146.714286 L150,130.428571 L174,130.428571 L174,146.714286 L150,146.714286 Z" id="Shape"></path>
                        <path d="M46.8510287,38.0924117 L51.0310857,36.8432757 L49.2163989,32 L40.656555,34.5544703 C39.8030673,34.8051277 39.1332595,35.4044703 38.8532813,36.1688956 L36,43.8323065 L41.4212344,45.4467318 L42.816489,41.7044328 L50.9654603,49 L55,45.387979 L46.8510287,38.0924117 Z" id="Shape" transform="translate(45.500000, 40.500000) rotate(181.000000) translate(-45.500000, -40.500000) "></path>
                        <path d="M141.146719,36.1766031 C140.867454,35.4065738 140.192653,34.8028045 139.332032,34.5529359 L130.772188,32 L128.968914,36.8505782 L133.148971,38.0989638 L125,45.3901487 L129.03454,49 L137.183511,41.7088151 L138.578766,45.4488662 L144,43.8354107 L141.146719,36.1766031 Z" id="Shape" transform="translate(134.500000, 40.500000) rotate(179.000000) translate(-134.500000, -40.500000) "></path>
                        <path d="M55,116.601803 L50.9744553,113 L42.820586,120.295567 L41.4244929,116.553268 L36,118.167693 L38.8549962,125.831104 C39.1351427,126.59521 39.8049962,127.194872 40.6593539,127.44553 L49.2243426,130 L51.0287002,125.146506 L46.8461307,123.89737 L55,116.601803 Z" id="Shape" transform="translate(45.500000, 121.500000) rotate(184.000000) translate(-45.500000, -121.500000) "></path>
                        <path d="M138.578766,116.553268 L137.183511,120.295567 L129.03454,113 L125,116.612021 L133.148971,123.907588 L128.968914,125.156724 L130.783601,130 L139.343445,127.44553 C140.196933,127.194872 140.866741,126.59553 141.146719,125.831104 L144,118.167693 L138.578766,116.553268 Z" id="Shape" transform="translate(134.500000, 121.500000) rotate(179.000000) translate(-134.500000, -121.500000) "></path>
                        <rect id="Rectangle-path" x="87" y="10" width="6" height="22"></rect>
                        <rect id="Rectangle-path" x="87" y="0" width="6" height="6"></rect>
                        <rect id="Rectangle-path" transform="translate(106.000000, 35.000000) rotate(-45.000000) translate(-106.000000, -35.000000) " x="102" y="32" width="8" height="6"></rect>
                        <rect id="Rectangle-path" transform="translate(75.000000, 36.000000) rotate(-45.000000) translate(-75.000000, -36.000000) " x="72" y="32" width="6" height="8"></rect>
                        <rect id="Rectangle-path" x="87" y="131" width="6" height="22"></rect>
                        <rect id="Rectangle-path" x="87" y="157" width="6" height="6"></rect>
                        <rect id="Rectangle-path" transform="translate(105.000000, 128.000000) rotate(-45.000000) translate(-105.000000, -128.000000) " x="102" y="124" width="6" height="8"></rect>
                        <rect id="Rectangle-path" transform="translate(76.000000, 127.000000) rotate(-45.000000) translate(-76.000000, -127.000000) " x="73" y="124" width="6" height="6"></rect>
                        <rect id="Rectangle-path" x="144" y="79" width="24" height="6"></rect>
                        <rect id="Rectangle-path" x="174" y="79" width="6" height="6"></rect>
                        <rect id="Rectangle-path" transform="translate(141.000000, 68.000000) rotate(-45.000000) translate(-141.000000, -68.000000) " x="137" y="65" width="8" height="6"></rect>
                        <rect id="Rectangle-path" transform="translate(141.000000, 96.000000) rotate(-45.000000) translate(-141.000000, -96.000000) " x="138" y="92" width="6" height="8"></rect>
                        <rect id="Rectangle-path" x="12" y="79" width="24" height="6"></rect>
                        <rect id="Rectangle-path" x="0" y="79" width="6" height="6"></rect>
                        <rect id="Rectangle-path" transform="translate(39.000000, 68.000000) rotate(-45.000000) translate(-39.000000, -68.000000) " x="36" y="64" width="6" height="8"></rect>
                        <rect id="Rectangle-path" transform="translate(40.000000, 95.000000) rotate(-45.000000) translate(-40.000000, -95.000000) " x="36" y="92" width="8" height="6"></rect>
                    </g>
                </g>
            </g>
        </g>
    </g>
</svg>