<?xml version="1.0" standalone="no"?>
<!DOCTYPE svg PUBLIC "-//W3C//DTD SVG 20010904//EN"
 "http://www.w3.org/TR/2001/REC-SVG-20010904/DTD/svg10.dtd">
<svg version="1.0" xmlns="http://www.w3.org/2000/svg"
 width="1151.000000pt" height="1151.000000pt" viewBox="0 0 1151.000000 1151.000000"
 preserveAspectRatio="xMidYMid meet">
<metadata>
Created by potrace 1.11, written by Peter Selinger 2001-2013
</metadata>
<g transform="translate(0.000000,1151.000000) scale(0.100000,-0.100000)"
fill="#000000" stroke="none">
<path d="M5599 10886 c-2 -2 -31 -6 -64 -10 -317 -32 -680 -178 -947 -382
-118 -91 -265 -235 -338 -332 -14 -19 -35 -46 -46 -60 -71 -88 -223 -368 -241
-441 -3 -14 -9 -31 -14 -36 -18 -24 -81 -265 -94 -365 -5 -30 -10 -66 -13 -80
-14 -77 -5 -433 14 -530 2 -14 6 -36 9 -49 61 -322 225 -656 445 -905 197
-224 461 -413 715 -512 39 -15 74 -30 79 -35 10 -9 15 -85 6 -99 -4 -6 -206
-10 -540 -10 -425 -1 -543 -4 -574 -15 -58 -20 -108 -65 -138 -124 l-27 -53
-1 -443 c0 -395 2 -448 17 -487 26 -67 60 -105 121 -135 l56 -27 541 -2 c297
-1 542 -2 545 -3 4 -1 5 -3772 1 -3804 -1 -5 -4 -6 -9 -4 -4 3 -56 12 -117 21
-60 9 -119 18 -130 20 -11 2 -56 12 -100 21 -607 123 -1203 382 -1666 725
-155 115 -351 297 -457 425 -37 44 -69 82 -72 85 -16 14 -135 187 -174 253
-57 96 -156 304 -156 328 0 5 152 9 365 8 307 0 373 2 413 15 57 19 98 56 132
116 32 58 35 156 6 213 -12 23 -293 312 -723 742 -630 630 -709 706 -754 723
-61 22 -122 20 -183 -7 -34 -14 -210 -186 -743 -718 -441 -442 -706 -714 -719
-739 -27 -54 -25 -154 4 -211 35 -68 95 -115 166 -129 12 -2 173 -4 358 -5
l337 0 10 -37 c5 -20 17 -66 26 -102 118 -472 361 -936 703 -1343 108 -129
329 -349 478 -477 49 -43 206 -164 259 -200 27 -19 55 -40 61 -45 9 -9 153
-103 244 -160 309 -194 787 -415 1135 -524 39 -13 79 -26 90 -31 49 -22 341
-100 580 -154 79 -18 392 -72 474 -81 30 -4 61 -8 70 -10 9 -1 52 -6 96 -10
44 -4 91 -8 105 -10 188 -27 865 -27 1075 0 17 2 56 6 88 9 86 9 170 18 187
21 18 3 81 12 135 20 22 3 47 7 55 10 8 2 31 6 50 9 19 3 44 7 55 10 11 2 40
7 65 11 75 12 367 82 500 120 69 20 132 38 140 40 32 8 377 128 405 140 17 8
53 23 80 33 28 11 75 31 105 45 30 14 80 35 110 48 80 34 342 169 433 223 43
25 83 46 88 46 5 0 9 5 9 10 0 6 5 10 11 10 29 0 426 281 588 415 144 121 387
365 505 509 326 396 564 854 676 1299 12 45 26 99 31 119 l10 38 332 0 c183 0
343 2 357 4 68 10 121 49 168 121 33 51 37 159 8 217 -11 23 -298 318 -719
739 -537 538 -710 706 -744 721 -59 26 -136 27 -194 1 -37 -17 -193 -167 -746
-721 -435 -435 -707 -715 -719 -739 -42 -86 -15 -215 59 -284 61 -55 95 -59
495 -60 199 0 362 -2 362 -5 0 -16 -59 -151 -103 -234 -42 -81 -136 -234 -167
-273 -344 -432 -660 -686 -1170 -941 -337 -169 -838 -335 -1182 -391 -18 -3
-45 -8 -60 -11 -15 -3 -41 -7 -58 -9 -69 -9 -116 -16 -130 -20 -13 -4 -15 211
-14 1898 1 1046 2 1904 3 1907 1 3 245 5 544 5 l542 0 60 30 c64 32 106 81
125 145 6 22 9 201 7 485 -2 440 -2 451 -24 490 -25 47 -64 85 -113 111 -33
18 -73 19 -590 24 l-555 5 1 49 c0 53 0 53 69 82 435 180 769 479 988 884 81
151 164 379 182 500 4 24 9 48 11 52 15 24 31 235 28 378 -4 241 -40 441 -119
648 -39 103 -104 238 -135 282 -11 15 -20 31 -20 35 0 4 -35 58 -77 119 -95
134 -288 333 -425 434 -53 40 -99 72 -102 72 -3 0 -25 14 -50 30 -109 74 -346
174 -516 218 -72 19 -99 25 -184 38 -21 3 -48 8 -60 10 -24 6 -382 14 -387 10z
m270 -1290 c142 -31 241 -84 341 -185 151 -152 213 -355 173 -570 -34 -186
-173 -367 -344 -449 -194 -93 -402 -89 -594 11 -89 47 -211 173 -257 267 -53
106 -72 187 -71 300 1 173 61 319 183 440 106 107 230 172 355 186 27 4 51 7
53 9 4 4 135 -4 161 -9z"/>
</g>
</svg>
