<?xml version="1.0" encoding="UTF-8"?>
<svg width="1151px" height="1027px" viewBox="0 0 1151 1027" version="1.1" xmlns="http://www.w3.org/2000/svg" xmlns:xlink="http://www.w3.org/1999/xlink">
    <!-- Generator: Sketch 49.3 (51167) - http://www.bohemiancoding.com/sketch -->
    <title>anchor</title>
    <desc>Created with Sketch.</desc>
    <defs></defs>
    <g id="Page-1" stroke="none" stroke-width="1" fill="none" fill-rule="evenodd" opacity="0.170289855">
        <g id="LANDING-1440-+" transform="translate(-145.000000, -23.000000)" fill="#00E676" fill-rule="nonzero">
            <g id="anchor" transform="translate(145.000000, 23.000000)">
                <path d="M24.1071192,706.062237 L89.0523833,706.062237 C132.77225,912.134369 362.873437,1027 575.500311,1027 C788.474024,1027 1018.27849,911.903695 1061.94824,706.062237 L1126.8935,706.062237 C1148.3274,706.062237 1159.0614,680.134478 1143.90469,664.972174 L1009.52129,530.521316 C1000.12654,521.121851 984.893651,521.121851 975.496897,530.521316 L841.113489,664.972174 C825.956788,680.136483 836.69078,706.062237 858.124682,706.062237 L928.587306,706.062237 C887.908804,815.01459 758.248834,879.745731 639.653657,894.643261 L639.653657,513.499579 L743.906103,513.499579 C757.192275,513.499579 767.96436,502.722088 767.96436,489.429247 L767.96436,409.194806 C767.96436,395.901965 757.192275,385.124474 743.906103,385.124474 L639.653657,385.124474 L639.653657,374.152414 C714.396646,347.719178 767.954335,276.416836 767.96436,192.585887 C767.976389,87.7997073 682.970548,1.47948421 578.246962,0.0192173899 C470.69252,-1.48317251 383.034257,85.2983986 383.034257,192.561817 C383.034257,276.402795 436.595955,347.715166 511.344959,374.152414 L511.344959,385.124474 L407.092513,385.124474 C393.806341,385.124474 383.034257,395.901965 383.034257,409.194806 L383.034257,489.429247 C383.034257,502.722088 393.806341,513.499579 407.092513,513.499579 L511.344959,513.499579 L511.344959,894.643261 C393.186841,879.801895 263.103847,815.052701 222.41131,706.062237 L292.873935,706.062237 C314.307836,706.062237 325.041829,680.134478 309.885127,664.972174 L175.501719,530.521316 C166.10697,521.121851 150.874084,521.121851 141.47733,530.521316 L7.09392199,664.972174 C-8.0607749,680.134478 2.67321732,706.062237 24.1071192,706.062237 Z M575.500311,128.374264 C610.875972,128.374264 639.655662,157.168399 639.655662,192.561817 C639.655662,227.955234 610.875972,256.749369 575.500311,256.749369 C540.124649,256.749369 511.344959,227.955234 511.344959,192.561817 C511.344959,157.168399 540.124649,128.374264 575.500311,128.374264 Z" id="Shape"></path>
            </g>
        </g>
    </g>
</svg>