<?xml version="1.0" encoding="UTF-8"?>
<svg width="180px" height="163px" viewBox="0 0 180 163" version="1.1" xmlns="http://www.w3.org/2000/svg" xmlns:xlink="http://www.w3.org/1999/xlink">
    <!-- Generator: Sketch 49.3 (51167) - http://www.bohemiancoding.com/sketch -->
    <title>decentralized</title>
    <desc>Created with Sketch.</desc>
    <defs></defs>
    <g id="Page-1" stroke="none" stroke-width="1" fill="none" fill-rule="evenodd" opacity="0.75">
        <g id="LANDING-1440-+" transform="translate(-562.000000, -932.000000)" fill="#00E676" fill-rule="nonzero">
            <g id="How" transform="translate(119.000000, 809.000000)">
                <g id="Group-14" transform="translate(0.000000, 100.000000)">
                    <g id="decentralized" transform="translate(443.000000, 23.000000)">
                        <path d="M90,44 C66.804,44 48,61.0131429 48,82 C48,102.986857 66.804,120 90,120 C113.1855,119.977607 131.97525,102.977357 132,82 C132,61.0131429 113.196,44 90,44 Z M121.218,65.8472857 C123.83625,69.9635 125.416875,74.5523393 125.847,79.2857143 L110.928,79.2857143 C110.7945,75.3255714 110.302875,71.3823929 109.458,67.4948571 C113.658,67.0795714 117.618,66.5258571 121.218,65.8472857 Z M117.456,60.9832857 C114.498,61.4664286 111.324,61.8708571 107.982,62.1857143 C106.798875,58.4240536 105.00975,54.8408571 102.672,51.5511429 C108.405,53.5084821 113.493,56.7547679 117.456,60.9832857 Z M75.069,79.2857143 C75.205125,75.4918214 75.699,71.7152321 76.545,67.997 C80.886,68.282 85.407,68.4285714 90,68.4285714 C94.593,68.4285714 99.114,68.282 103.455,67.997 C104.301,71.7152321 104.794875,75.4918214 104.931,79.2857143 L75.069,79.2857143 Z M104.931,84.7142857 C104.7945,88.5081786 104.301,92.2847679 103.455,96.003 C99.114,95.718 94.593,95.5714286 90,95.5714286 C85.407,95.5714286 80.886,95.718 76.545,96.003 C75.699,92.2847679 75.205125,88.5081786 75.069,84.7142857 L104.931,84.7142857 Z M90,49.4285714 C94.326,49.4285714 98.94,54.4174286 101.895,62.6471429 C98.046,62.8724286 94.062,63 90,63 C85.938,63 81.954,62.8724286 78.105,62.6471429 C81.06,54.4174286 85.674,49.4285714 90,49.4285714 Z M77.328,51.5511429 C74.99025,54.8408571 73.201125,58.4240536 72.018,62.1857143 C68.676,61.8708571 65.502,61.4664286 62.544,60.9832857 C66.507,56.7547679 71.595,53.5084821 77.328,51.5511429 Z M58.782,65.8472857 C62.382,66.5258571 66.336,67.0795714 70.542,67.4948571 C69.697125,71.3823929 69.2055,75.3255714 69.072,79.2857143 L54.153,79.2857143 C54.583125,74.5523393 56.164125,69.9635 58.782,65.8472857 Z M58.782,98.1527143 C56.16375,94.0365 54.583125,89.4476607 54.153,84.7142857 L69.072,84.7142857 C69.2055,88.6744286 69.697125,92.6176071 70.542,96.5051429 C66.342,96.9204286 62.382,97.4741429 58.782,98.1527143 Z M62.544,103.016714 C65.502,102.533571 68.676,102.129143 72.018,101.814286 C73.201125,105.575946 74.99025,109.159143 77.328,112.448857 C71.595,110.491179 66.507,107.245232 62.544,103.016714 Z M90,114.571429 C85.674,114.571429 81.06,109.582571 78.105,101.352857 C81.954,101.127571 85.938,101 90,101 C94.062,101 98.046,101.127571 101.895,101.352857 C98.94,109.582571 94.326,114.571429 90,114.571429 Z M102.672,112.448857 C105.00975,109.159143 106.798875,105.575946 107.982,101.814286 C111.324,102.129143 114.498,102.533571 117.456,103.016714 C113.493,107.245232 108.405,110.491179 102.672,112.448857 Z M121.218,98.1527143 C117.618,97.4741429 113.664,96.9204286 109.458,96.5051429 C110.302875,92.6176071 110.7945,88.6740893 110.928,84.7142857 L125.847,84.7142857 C125.416875,89.4476607 123.835875,94.0365 121.218,98.1527143 Z" id="Shape"></path>
                        <path d="M33,0 L3,0 C1.34325,0 0,1.21532143 0,2.71428571 L0,24.4285714 C0,25.9275357 1.34325,27.1428571 3,27.1428571 L15,27.1428571 L15,32.5714286 L3,32.5714286 L3,38 L33,38 L33,32.5714286 L21,32.5714286 L21,27.1428571 L33,27.1428571 C34.65675,27.1428571 36,25.9275357 36,24.4285714 L36,2.71428571 C36,1.21532143 34.65675,0 33,0 Z M30,21.7142857 L6,21.7142857 L6,5.42857143 L30,5.42857143 L30,21.7142857 Z" id="Shape"></path>
                        <path d="M177,0 L147,0 C145.34325,0 144,1.21532143 144,2.71428571 L144,24.4285714 C144,25.9275357 145.34325,27.1428571 147,27.1428571 L159,27.1428571 L159,32.5714286 L147,32.5714286 L147,38 L177,38 L177,32.5714286 L165,32.5714286 L165,27.1428571 L177,27.1428571 C178.65675,27.1428571 180,25.9275357 180,24.4285714 L180,2.71428571 C180,1.21532143 178.65675,0 177,0 Z M174,21.7142857 L150,21.7142857 L150,5.42857143 L174,5.42857143 L174,21.7142857 Z" id="Shape"></path>
                        <path d="M33,152.142857 C34.65675,152.142857 36,150.927536 36,149.428571 L36,127.714286 C36,126.215321 34.65675,125 33,125 L3,125 C1.34325,125 0,126.215321 0,127.714286 L0,149.428571 C0,150.927536 1.34325,152.142857 3,152.142857 L15,152.142857 L15,157.571429 L0,157.571429 L0,163 L36,163 L36,157.571429 L21,157.571429 L21,152.142857 L33,152.142857 Z M6,146.714286 L6,130.428571 L30,130.428571 L30,146.714286 L6,146.714286 Z" id="Shape"></path>
                        <path d="M177,152.142857 C178.65675,152.142857 180,150.927536 180,149.428571 L180,127.714286 C180,126.215321 178.65675,125 177,125 L147,125 C145.34325,125 144,126.215321 144,127.714286 L144,149.428571 C144,150.927536 145.34325,152.142857 147,152.142857 L159,152.142857 L159,157.571429 L144,157.571429 L144,163 L180,163 L180,157.571429 L165,157.571429 L165,152.142857 L177,152.142857 Z M150,146.714286 L150,130.428571 L174,130.428571 L174,146.714286 L150,146.714286 Z" id="Shape"></path>
                        <path d="M46.8510287,38.0924117 L51.0310857,36.8432757 L49.2163989,32 L40.656555,34.5544703 C39.8030673,34.8051277 39.1332595,35.4044703 38.8532813,36.1688956 L36,43.8323065 L41.4212344,45.4467318 L42.816489,41.7044328 L50.9654603,49 L55,45.387979 L46.8510287,38.0924117 Z" id="Shape"></path>
                        <path d="M141.146719,36.1766031 C140.867454,35.4065738 140.192653,34.8028045 139.332032,34.5529359 L130.772188,32 L128.968914,36.8505782 L133.148971,38.0989638 L125,45.3901487 L129.03454,49 L137.183511,41.7088151 L138.578766,45.4488662 L144,43.8354107 L141.146719,36.1766031 Z" id="Shape"></path>
                        <path d="M55,116.601803 L50.9744553,113 L42.820586,120.295567 L41.4244929,116.553268 L36,118.167693 L38.8549962,125.831104 C39.1351427,126.59521 39.8049962,127.194872 40.6593539,127.44553 L49.2243426,130 L51.0287002,125.146506 L46.8461307,123.89737 L55,116.601803 Z" id="Shape"></path>
                        <path d="M138.578766,116.553268 L137.183511,120.295567 L129.03454,113 L125,116.612021 L133.148971,123.907588 L128.968914,125.156724 L130.783601,130 L139.343445,127.44553 C140.196933,127.194872 140.866741,126.59553 141.146719,125.831104 L144,118.167693 L138.578766,116.553268 Z" id="Shape"></path>
                        <rect id="Rectangle-path" x="87" y="10" width="6" height="22"></rect>
                        <rect id="Rectangle-path" x="87" y="0" width="6" height="6"></rect>
                        <rect id="Rectangle-path" transform="translate(106.000000, 35.000000) rotate(-45.000000) translate(-106.000000, -35.000000) " x="102" y="32" width="8" height="6"></rect>
                        <rect id="Rectangle-path" transform="translate(75.000000, 36.000000) rotate(-45.000000) translate(-75.000000, -36.000000) " x="72" y="32" width="6" height="8"></rect>
                        <rect id="Rectangle-path" x="87" y="131" width="6" height="22"></rect>
                        <rect id="Rectangle-path" x="87" y="157" width="6" height="6"></rect>
                        <rect id="Rectangle-path" transform="translate(105.000000, 128.000000) rotate(-45.000000) translate(-105.000000, -128.000000) " x="102" y="124" width="6" height="8"></rect>
                        <rect id="Rectangle-path" transform="translate(76.000000, 127.000000) rotate(-45.000000) translate(-76.000000, -127.000000) " x="73" y="124" width="6" height="6"></rect>
                        <rect id="Rectangle-path" x="144" y="79" width="24" height="6"></rect>
                        <rect id="Rectangle-path" x="174" y="79" width="6" height="6"></rect>
                        <rect id="Rectangle-path" transform="translate(141.000000, 68.000000) rotate(-45.000000) translate(-141.000000, -68.000000) " x="137" y="65" width="8" height="6"></rect>
                        <rect id="Rectangle-path" transform="translate(141.000000, 96.000000) rotate(-45.000000) translate(-141.000000, -96.000000) " x="138" y="92" width="6" height="8"></rect>
                        <rect id="Rectangle-path" x="12" y="79" width="24" height="6"></rect>
                        <rect id="Rectangle-path" x="0" y="79" width="6" height="6"></rect>
                        <rect id="Rectangle-path" transform="translate(39.000000, 68.000000) rotate(-45.000000) translate(-39.000000, -68.000000) " x="36" y="64" width="6" height="8"></rect>
                        <rect id="Rectangle-path" transform="translate(40.000000, 95.000000) rotate(-45.000000) translate(-40.000000, -95.000000) " x="36" y="92" width="8" height="6"></rect>
                    </g>
                </g>
            </g>
        </g>
    </g>
</svg>